<svg id="Layer_1" data-name="Layer 1" xmlns="http://www.w3.org/2000/svg" xmlns:xlink="http://www.w3.org/1999/xlink" viewBox="0 0 224.49 225"><defs><style>.cls-1{fill:url(#linear-gradient);}.cls-2{fill:#f37148;}</style><linearGradient id="linear-gradient" x1="424.14" y1="383.44" x2="424.91" y2="383.44" gradientUnits="userSpaceOnUse"><stop offset="0.01" stop-color="#6a6a6a"/><stop offset="0.73"/></linearGradient></defs><path class="cls-1" d="M392.06,345.94a7.31,7.31,0,0,1,6.81,9.9,100.11,100.11,0,0,1-81.24,64.33,101.85,101.85,0,0,1-25,0A99.47,99.47,0,0,1,241.38,398a7.3,7.3,0,0,1,1-11.94l9.7-5.6a7.24,7.24,0,0,1,8,.44A75,75,0,0,0,374.16,350.3a7.23,7.23,0,0,1,6.67-4.36Z" transform="translate(-180.35 -195.94)"/><path class="cls-2" d="M397.55,320.94H187.64a7.28,7.28,0,0,1-7.28-7.69q.34-5.61,1.17-11.07a7.3,7.3,0,0,1,7.21-6.24h14a7.22,7.22,0,0,0,6.92-5,100.15,100.15,0,0,1,82.92-69.21V203.35a7.27,7.27,0,0,1,6.92-7.28c1.85-.08,3.71-.13,5.58-.13s3.72.05,5.57.13a7.28,7.28,0,0,1,6.93,7.28v18.36a100.17,100.17,0,0,1,69.86,42.52,7.31,7.31,0,0,1-2.32,10.51L376.11,280a7.26,7.26,0,0,1-9.56-2.06,75.45,75.45,0,0,0-12.68-14,74.69,74.69,0,0,0-36.24-17,75,75,0,0,0-83.23,49H396.14a7.31,7.31,0,0,1,7.17,5.92A102.05,102.05,0,0,1,404.82,313,7.32,7.32,0,0,1,397.55,320.94Z" transform="translate(-180.35 -195.94)"/></svg>